
<svg width="1366" height="643" xmlns="http://www.w3.org/2000/svg"><g><path d="M-18.279300341382623,-31.22292964719236L-48.87781812809408,64.1181767731905L92.994394171983,88.93607650883496Z" fill="#c4214e" stroke="#c4214e"></path><path d="M-18.279300341382623,-31.22292964719236L92.994394171983,88.93607650883496L122.0243158377707,-109.02226209640503Z" fill="#b11c49" stroke="#b11c49"></path><path d="M122.0243158377707,-109.02226209640503L92.994394171983,88.93607650883496L228.68865919299424,41.76351835951209Z" fill="#ce354f" stroke="#ce354f"></path><path d="M122.0243158377707,-109.02226209640503L228.68865919299424,41.76351835951209L275.7215158827603,-17.272053491324186Z" fill="#c23548" stroke="#c23548"></path><path d="M122.0243158377707,-109.02226209640503L275.7215158827603,-17.272053491324186L343.42188796028495,-113.71223855763674Z" fill="#ac3240" stroke="#ac3240"></path><path d="M122.0243158377707,-109.02226209640503L343.42188796028495,-113.71223855763674L1107.002771180123,-130.633185217157Z" fill="#a16c5b" stroke="#a16c5b"></path><path d="M275.7215158827603,-17.272053491324186L228.68865919299424,41.76351835951209L367.49011910520494,114.2101245559752Z" fill="#f05a51" stroke="#f05a51"></path><path d="M275.7215158827603,-17.272053491324186L367.49011910520494,114.2101245559752L474.25341445952654,30.293129989877343Z" fill="#f26d59" stroke="#f26d59"></path><path d="M275.7215158827603,-17.272053491324186L474.25341445952654,30.293129989877343L343.42188796028495,-113.71223855763674Z" fill="#ca544f" stroke="#ca544f"></path><path d="M343.42188796028495,-113.71223855763674L474.25341445952654,30.293129989877343L512.2004174999893,-99.97026588767767Z" fill="#bd5d55" stroke="#bd5d55"></path><path d="M343.42188796028495,-113.71223855763674L512.2004174999893,-99.97026588767767L616.1960995662957,-116.59500402398407Z" fill="#a56657" stroke="#a56657"></path><path d="M343.42188796028495,-113.71223855763674L616.1960995662957,-116.59500402398407L1107.002771180123,-130.633185217157Z" fill="#927a65" stroke="#927a65"></path><path d="M512.2004174999893,-99.97026588767767L474.25341445952654,30.293129989877343L616.1960995662957,-116.59500402398407Z" fill="#bd6e63" stroke="#bd6e63"></path><path d="M616.1960995662957,-116.59500402398407L474.25341445952654,30.293129989877343L705.9993365965784,104.34289391152561Z" fill="#dc8870" stroke="#dc8870"></path><path d="M616.1960995662957,-116.59500402398407L705.9993365965784,104.34289391152561L820.3597071580589,-48.08532631024718Z" fill="#c08472" stroke="#c08472"></path><path d="M616.1960995662957,-116.59500402398407L820.3597071580589,-48.08532631024718L922.2516428120434,-93.67020140402019Z" fill="#8f726d" stroke="#8f726d"></path><path d="M616.1960995662957,-116.59500402398407L922.2516428120434,-93.67020140402019L1107.002771180123,-130.633185217157Z" fill="#6a696b" stroke="#6a696b"></path><path d="M820.3597071580589,-48.08532631024718L705.9993365965784,104.34289391152561L868.6402695905417,124.97636100277305Z" fill="#d79580" stroke="#d79580"></path><path d="M820.3597071580589,-48.08532631024718L868.6402695905417,124.97636100277305L996.6262194234878,94.82810838147998Z" fill="#be8a81" stroke="#be8a81"></path><path d="M820.3597071580589,-48.08532631024718L996.6262194234878,94.82810838147998L922.2516428120434,-93.67020140402019Z" fill="#947378" stroke="#947378"></path><path d="M922.2516428120434,-93.67020140402019L996.6262194234878,94.82810838147998L1107.002771180123,-130.633185217157Z" fill="#715b79" stroke="#715b79"></path><path d="M1107.002771180123,-130.633185217157L996.6262194234878,94.82810838147998L1160.3194389212877,125.25199432857335Z" fill="#886089" stroke="#886089"></path><path d="M1107.002771180123,-130.633185217157L1160.3194389212877,125.25199432857335L1306.5936943609267,84.95070199482143Z" fill="#954980" stroke="#954980"></path><path d="M1107.002771180123,-130.633185217157L1306.5936943609267,84.95070199482143L1312.640081886202,-133.41024616733193Z" fill="#71256f" stroke="#71256f"></path><path d="M1312.640081886202,-133.41024616733193L1306.5936943609267,84.95070199482143L1394.5170643553138,-57.694864897057414Z" fill="#8d1869" stroke="#8d1869"></path><path d="M1312.640081886202,-133.41024616733193L1394.5170643553138,-57.694864897057414L1569.4779920764267,-45.373779432848096Z" fill="#84005b" stroke="#84005b"></path><path d="M1394.5170643553138,-57.694864897057414L1306.5936943609267,84.95070199482143L1465.9960806649178,44.970782697200775Z" fill="#b31f6b" stroke="#b31f6b"></path><path d="M1394.5170643553138,-57.694864897057414L1465.9960806649178,44.970782697200775L1517.8193609509617,36.54720406048Z" fill="#b61463" stroke="#b61463"></path><path d="M1394.5170643553138,-57.694864897057414L1517.8193609509617,36.54720406048L1569.4779920764267,-45.373779432848096Z" fill="#ac0b5b" stroke="#ac0b5b"></path><path d="M1569.4779920764267,-45.373779432848096L1517.8193609509617,36.54720406048L1611.2479869648814,204.05634119175375Z" fill="#e4265f" stroke="#e4265f"></path><path d="M-48.87781812809408,64.1181767731905L-104.08854902721941,424.9449538718909L-23.78109097480774,262.30313189327717Z" fill="#c37d6f" stroke="#c37d6f"></path><path d="M-48.87781812809408,64.1181767731905L-23.78109097480774,262.30313189327717L92.994394171983,88.93607650883496Z" fill="#d0494c" stroke="#d0494c"></path><path d="M92.994394171983,88.93607650883496L-23.78109097480774,262.30313189327717L129.95268805883825,226.0455861221999Z" fill="#dc775e" stroke="#dc775e"></path><path d="M92.994394171983,88.93607650883496L129.95268805883825,226.0455861221999L228.68865919299424,41.76351835951209Z" fill="#ec5f50" stroke="#ec5f50"></path><path d="M228.68865919299424,41.76351835951209L129.95268805883825,226.0455861221999L282.06194853410125,240.5466034077108Z" fill="#f38657" stroke="#f38657"></path><path d="M228.68865919299424,41.76351835951209L282.06194853410125,240.5466034077108L367.49011910520494,114.2101245559752Z" fill="#fa7e4d" stroke="#fa7e4d"></path><path d="M367.49011910520494,114.2101245559752L282.06194853410125,240.5466034077108L433.380971532315,214.9701213464141Z" fill="#fdb164" stroke="#fdb164"></path><path d="M367.49011910520494,114.2101245559752L433.380971532315,214.9701213464141L510.3595032636076,181.86994534917176Z" fill="#feb668" stroke="#feb668"></path><path d="M367.49011910520494,114.2101245559752L510.3595032636076,181.86994534917176L474.25341445952654,30.293129989877343Z" fill="#fe9761" stroke="#fe9761"></path><path d="M474.25341445952654,30.293129989877343L510.3595032636076,181.86994534917176L705.9993365965784,104.34289391152561Z" fill="#fda971" stroke="#fda971"></path><path d="M705.9993365965784,104.34289391152561L510.3595032636076,181.86994534917176L724.1469242144376,185.56694593280554Z" fill="#f6ca7b" stroke="#f6ca7b"></path><path d="M705.9993365965784,104.34289391152561L724.1469242144376,185.56694593280554L868.6402695905417,124.97636100277305Z" fill="#e1ba7a" stroke="#e1ba7a"></path><path d="M868.6402695905417,124.97636100277305L724.1469242144376,185.56694593280554L765.3746959101409,276.3442218583077Z" fill="#dcda8b" stroke="#dcda8b"></path><path d="M868.6402695905417,124.97636100277305L765.3746959101409,276.3442218583077L1001.6033538803458,226.3960347790271Z" fill="#c6d692" stroke="#c6d692"></path><path d="M868.6402695905417,124.97636100277305L1001.6033538803458,226.3960347790271L996.6262194234878,94.82810838147998Z" fill="#b3ae80" stroke="#b3ae80"></path><path d="M996.6262194234878,94.82810838147998L1001.6033538803458,226.3960347790271L1084.799574734643,172.79752559959888Z" fill="#a5a98b" stroke="#a5a98b"></path><path d="M996.6262194234878,94.82810838147998L1084.799574734643,172.79752559959888L1160.3194389212877,125.25199432857335Z" fill="#9b8986" stroke="#9b8986"></path><path d="M1160.3194389212877,125.25199432857335L1084.799574734643,172.79752559959888L1248.3580172806978,207.26974837481976Z" fill="#a48e8b" stroke="#a48e8b"></path><path d="M1160.3194389212877,125.25199432857335L1248.3580172806978,207.26974837481976L1306.5936943609267,84.95070199482143Z" fill="#b06d7b" stroke="#b06d7b"></path><path d="M1306.5936943609267,84.95070199482143L1248.3580172806978,207.26974837481976L1418.678233679384,263.33363394252956Z" fill="#be777f" stroke="#be777f"></path><path d="M1306.5936943609267,84.95070199482143L1418.678233679384,263.33363394252956L1465.9960806649178,44.970782697200775Z" fill="#ca4769" stroke="#ca4769"></path><path d="M1465.9960806649178,44.970782697200775L1418.678233679384,263.33363394252956L1611.2479869648814,204.05634119175375Z" fill="#da5b6a" stroke="#da5b6a"></path><path d="M1465.9960806649178,44.970782697200775L1611.2479869648814,204.05634119175375L1517.8193609509617,36.54720406048Z" fill="#df335f" stroke="#df335f"></path><path d="M-23.78109097480774,262.30313189327717L-104.08854902721941,424.9449538718909L107.54687586799264,383.47277630120516Z" fill="#bf807f" stroke="#bf807f"></path><path d="M-23.78109097480774,262.30313189327717L107.54687586799264,383.47277630120516L129.95268805883825,226.0455861221999Z" fill="#dd907c" stroke="#dd907c"></path><path d="M129.95268805883825,226.0455861221999L107.54687586799264,383.47277630120516L264.95940120890737,366.84343457221985Z" fill="#eca481" stroke="#eca481"></path><path d="M129.95268805883825,226.0455861221999L264.95940120890737,366.84343457221985L282.06194853410125,240.5466034077108Z" fill="#f4ae79" stroke="#f4ae79"></path><path d="M282.06194853410125,240.5466034077108L264.95940120890737,366.84343457221985L383.63892135210335,328.36850244551897Z" fill="#fbbf7f" stroke="#fbbf7f"></path><path d="M282.06194853410125,240.5466034077108L383.63892135210335,328.36850244551897L433.380971532315,214.9701213464141Z" fill="#fdcc7f" stroke="#fdcc7f"></path><path d="M433.380971532315,214.9701213464141L383.63892135210335,328.36850244551897L533.833293216303,384.2795273847878Z" fill="#fede90" stroke="#fede90"></path><path d="M433.380971532315,214.9701213464141L533.833293216303,384.2795273847878L510.3595032636076,181.86994534917176Z" fill="#ffe691" stroke="#ffe691"></path><path d="M510.3595032636076,181.86994534917176L533.833293216303,384.2795273847878L724.1469242144376,185.56694593280554Z" fill="#fbf198" stroke="#fbf198"></path><path d="M724.1469242144376,185.56694593280554L533.833293216303,384.2795273847878L765.3746959101409,276.3442218583077Z" fill="#f4faa2" stroke="#f4faa2"></path><path d="M765.3746959101409,276.3442218583077L533.833293216303,384.2795273847878L670.2478294819593,415.11020231992006Z" fill="#e7f8aa" stroke="#e7f8aa"></path><path d="M765.3746959101409,276.3442218583077L670.2478294819593,415.11020231992006L796.7826711572707,408.3868328668177Z" fill="#d4f5af" stroke="#d4f5af"></path><path d="M765.3746959101409,276.3442218583077L796.7826711572707,408.3868328668177L959.2982371430844,377.8345584310591Z" fill="#c3ecb1" stroke="#c3ecb1"></path><path d="M765.3746959101409,276.3442218583077L959.2982371430844,377.8345584310591L1001.6033538803458,226.3960347790271Z" fill="#bfe5aa" stroke="#bfe5aa"></path><path d="M1001.6033538803458,226.3960347790271L959.2982371430844,377.8345584310591L1091.6697021201253,340.84931910037994Z" fill="#a7d4b2" stroke="#a7d4b2"></path><path d="M1001.6033538803458,226.3960347790271L1091.6697021201253,340.84931910037994L1084.799574734643,172.79752559959888Z" fill="#9fc7ab" stroke="#9fc7ab"></path><path d="M1084.799574734643,172.79752559959888L1091.6697021201253,340.84931910037994L1248.3580172806978,207.26974837481976Z" fill="#a1b3a6" stroke="#a1b3a6"></path><path d="M1248.3580172806978,207.26974837481976L1091.6697021201253,340.84931910037994L1241.1959377862513,424.69268191605806Z" fill="#a8afb0" stroke="#a8afb0"></path><path d="M1248.3580172806978,207.26974837481976L1241.1959377862513,424.69268191605806L1398.9077813085169,376.7973487637937Z" fill="#b499a7" stroke="#b499a7"></path><path d="M1248.3580172806978,207.26974837481976L1398.9077813085169,376.7973487637937L1418.678233679384,263.33363394252956Z" fill="#c38d9b" stroke="#c38d9b"></path><path d="M1418.678233679384,263.33363394252956L1398.9077813085169,376.7973487637937L1527.5983670633286,369.2040845286101Z" fill="#cc8098" stroke="#cc8098"></path><path d="M1418.678233679384,263.33363394252956L1527.5983670633286,369.2040845286101L1611.2479869648814,204.05634119175375Z" fill="#dd808a" stroke="#dd808a"></path><path d="M1611.2479869648814,204.05634119175375L1527.5983670633286,369.2040845286101L1583.1743255071342,498.5932113043964Z" fill="#d8808e" stroke="#d8808e"></path><path d="M1611.2479869648814,204.05634119175375L1583.1743255071342,498.5932113043964L1616.9654528517276,688.6484466399997Z" fill="#a26c92" stroke="#a26c92"></path><path d="M-104.08854902721941,424.9449538718909L-79.70235485583544,648.5497251804918L-42.2455358505249,492.241265270859Z" fill="#614d8c" stroke="#614d8c"></path><path d="M-104.08854902721941,424.9449538718909L-42.2455358505249,492.241265270859L107.54687586799264,383.47277630120516Z" fill="#947783" stroke="#947783"></path><path d="M107.54687586799264,383.47277630120516L-42.2455358505249,492.241265270859L48.3566209115088,512.690092753619Z" fill="#8d7689" stroke="#8d7689"></path><path d="M107.54687586799264,383.47277630120516L48.3566209115088,512.690092753619L170.36937665194273,539.6829875931144Z" fill="#947d8f" stroke="#947d8f"></path><path d="M107.54687586799264,383.47277630120516L170.36937665194273,539.6829875931144L264.95940120890737,366.84343457221985Z" fill="#b99e88" stroke="#b99e88"></path><path d="M264.95940120890737,366.84343457221985L170.36937665194273,539.6829875931144L329.6552374307066,537.0979850459844Z" fill="#a6978c" stroke="#a6978c"></path><path d="M264.95940120890737,366.84343457221985L329.6552374307066,537.0979850459844L383.63892135210335,328.36850244551897Z" fill="#d2be8a" stroke="#d2be8a"></path><path d="M383.63892135210335,328.36850244551897L329.6552374307066,537.0979850459844L533.833293216303,384.2795273847878Z" fill="#d1d294" stroke="#d1d294"></path><path d="M533.833293216303,384.2795273847878L329.6552374307066,537.0979850459844L551.7886863369495,568.2585397269577Z" fill="#a5bda7" stroke="#a5bda7"></path><path d="M533.833293216303,384.2795273847878L551.7886863369495,568.2585397269577L670.2478294819593,415.11020231992006Z" fill="#b5e4ac" stroke="#b5e4ac"></path><path d="M670.2478294819593,415.11020231992006L551.7886863369495,568.2585397269577L691.3616168405861,468.7260012701154Z" fill="#a3d9b4" stroke="#a3d9b4"></path><path d="M670.2478294819593,415.11020231992006L691.3616168405861,468.7260012701154L796.7826711572707,408.3868328668177Z" fill="#b4efb0" stroke="#b4efb0"></path><path d="M796.7826711572707,408.3868328668177L691.3616168405861,468.7260012701154L801.6191144194454,576.368067227304Z" fill="#8ed5ba" stroke="#8ed5ba"></path><path d="M796.7826711572707,408.3868328668177L801.6191144194454,576.368067227304L966.6727578733116,545.1457654684782Z" fill="#6cbfc2" stroke="#6cbfc2"></path><path d="M796.7826711572707,408.3868328668177L966.6727578733116,545.1457654684782L959.2982371430844,377.8345584310591Z" fill="#80dbb5" stroke="#80dbb5"></path><path d="M959.2982371430844,377.8345584310591L966.6727578733116,545.1457654684782L1093.810540633276,489.08703764900565Z" fill="#5cbfbe" stroke="#5cbfbe"></path><path d="M959.2982371430844,377.8345584310591L1093.810540633276,489.08703764900565L1091.6697021201253,340.84931910037994Z" fill="#7dcabd" stroke="#7dcabd"></path><path d="M1091.6697021201253,340.84931910037994L1093.810540633276,489.08703764900565L1241.1959377862513,424.69268191605806Z" fill="#72b3bc" stroke="#72b3bc"></path><path d="M1241.1959377862513,424.69268191605806L1093.810540633276,489.08703764900565L1300.9083904791623,541.1574010178447Z" fill="#588cbd" stroke="#588cbd"></path><path d="M1241.1959377862513,424.69268191605806L1300.9083904791623,541.1574010178447L1369.953917954117,512.4580076336861Z" fill="#6375b6" stroke="#6375b6"></path><path d="M1241.1959377862513,424.69268191605806L1369.953917954117,512.4580076336861L1398.9077813085169,376.7973487637937Z" fill="#8587a9" stroke="#8587a9"></path><path d="M1398.9077813085169,376.7973487637937L1369.953917954117,512.4580076336861L1527.5983670633286,369.2040845286101Z" fill="#a079a0" stroke="#a079a0"></path><path d="M1527.5983670633286,369.2040845286101L1369.953917954117,512.4580076336861L1583.1743255071342,498.5932113043964Z" fill="#916e9c" stroke="#916e9c"></path><path d="M-42.2455358505249,492.241265270859L-79.70235485583544,648.5497251804918L48.3566209115088,512.690092753619Z" fill="#773e88" stroke="#773e88"></path><path d="M48.3566209115088,512.690092753619L-79.70235485583544,648.5497251804918L103.69309158995748,704.7260205913335Z" fill="#9e1e78" stroke="#9e1e78"></path><path d="M48.3566209115088,512.690092753619L103.69309158995748,704.7260205913335L180.8990577980876,643.3191458042711Z" fill="#af337d" stroke="#af337d"></path><path d="M48.3566209115088,512.690092753619L180.8990577980876,643.3191458042711L170.36937665194273,539.6829875931144Z" fill="#9d548c" stroke="#9d548c"></path><path d="M170.36937665194273,539.6829875931144L180.8990577980876,643.3191458042711L329.6552374307066,537.0979850459844Z" fill="#ab6186" stroke="#ab6186"></path><path d="M329.6552374307066,537.0979850459844L180.8990577980876,643.3191458042711L354.1981431283057,716.7612509429455Z" fill="#c94d76" stroke="#c94d76"></path><path d="M329.6552374307066,537.0979850459844L354.1981431283057,716.7612509429455L551.7886863369495,568.2585397269577Z" fill="#c3788b" stroke="#c3788b"></path><path d="M551.7886863369495,568.2585397269577L354.1981431283057,716.7612509429455L552.2010622546077,694.7718805912882Z" fill="#d96989" stroke="#d96989"></path><path d="M551.7886863369495,568.2585397269577L552.2010622546077,694.7718805912882L668.1090776436031,638.0852421373129Z" fill="#ca869b" stroke="#ca869b"></path><path d="M551.7886863369495,568.2585397269577L668.1090776436031,638.0852421373129L691.3616168405861,468.7260012701154Z" fill="#a7b1b0" stroke="#a7b1b0"></path><path d="M691.3616168405861,468.7260012701154L668.1090776436031,638.0852421373129L801.6191144194454,576.368067227304Z" fill="#9cb0b3" stroke="#9cb0b3"></path><path d="M801.6191144194454,576.368067227304L668.1090776436031,638.0852421373129L795.6866176519543,685.0523803755641Z" fill="#b286a2" stroke="#b286a2"></path><path d="M801.6191144194454,576.368067227304L795.6866176519543,685.0523803755641L919.2508040182292,652.5517472159117Z" fill="#a17ca4" stroke="#a17ca4"></path><path d="M801.6191144194454,576.368067227304L919.2508040182292,652.5517472159117L966.6727578733116,545.1457654684782Z" fill="#7f90b0" stroke="#7f90b0"></path><path d="M966.6727578733116,545.1457654684782L919.2508040182292,652.5517472159117L1080.5341921839863,656.9989952165633Z" fill="#7674ac" stroke="#7674ac"></path><path d="M966.6727578733116,545.1457654684782L1080.5341921839863,656.9989952165633L1093.810540633276,489.08703764900565Z" fill="#5485bf" stroke="#5485bf"></path><path d="M1093.810540633276,489.08703764900565L1080.5341921839863,656.9989952165633L1300.9083904791623,541.1574010178447Z" fill="#556ebd" stroke="#556ebd"></path><path d="M1300.9083904791623,541.1574010178447L1080.5341921839863,656.9989952165633L1265.2555604092777,698.6453430633992Z" fill="#7b3da6" stroke="#7b3da6"></path><path d="M1300.9083904791623,541.1574010178447L1265.2555604092777,698.6453430633992L1373.3006262034178,627.3466126341373Z" fill="#872e9e" stroke="#872e9e"></path><path d="M1300.9083904791623,541.1574010178447L1373.3006262034178,627.3466126341373L1369.953917954117,512.4580076336861Z" fill="#7347ab" stroke="#7347ab"></path><path d="M1369.953917954117,512.4580076336861L1373.3006262034178,627.3466126341373L1583.1743255071342,498.5932113043964Z" fill="#7c40a5" stroke="#7c40a5"></path><path d="M1583.1743255071342,498.5932113043964L1373.3006262034178,627.3466126341373L1616.9654528517276,688.6484466399997Z" fill="#a2218e" stroke="#a2218e"></path><path d="M-79.70235485583544,648.5497251804918L-37.66891496255994,771.360822301358L103.69309158995748,704.7260205913335Z" fill="#bc0062" stroke="#bc0062"></path><path d="M103.69309158995748,704.7260205913335L-37.66891496255994,771.360822301358L84.76692273281515,856.3453000131994Z" fill="#d90c53" stroke="#d90c53"></path><path d="M103.69309158995748,704.7260205913335L84.76692273281515,856.3453000131994L233.25731540098786,876.4796844217926Z" fill="#eb204e" stroke="#eb204e"></path><path d="M103.69309158995748,704.7260205913335L233.25731540098786,876.4796844217926L180.8990577980876,643.3191458042711Z" fill="#ea255e" stroke="#ea255e"></path><path d="M180.8990577980876,643.3191458042711L233.25731540098786,876.4796844217926L354.1981431283057,716.7612509429455Z" fill="#f5345a" stroke="#f5345a"></path><path d="M354.1981431283057,716.7612509429455L233.25731540098786,876.4796844217926L376.48598643019795,871.2198781874031Z" fill="#fb424b" stroke="#fb424b"></path><path d="M354.1981431283057,716.7612509429455L376.48598643019795,871.2198781874031L550.7461224775761,766.2200899142772Z" fill="#fe5a60" stroke="#fe5a60"></path><path d="M354.1981431283057,716.7612509429455L550.7461224775761,766.2200899142772L552.2010622546077,694.7718805912882Z" fill="#f46578" stroke="#f46578"></path><path d="M552.2010622546077,694.7718805912882L550.7461224775761,766.2200899142772L722.5117193721235,782.4396017286927Z" fill="#f7757f" stroke="#f7757f"></path><path d="M552.2010622546077,694.7718805912882L722.5117193721235,782.4396017286927L668.1090776436031,638.0852421373129Z" fill="#e2788c" stroke="#e2788c"></path><path d="M668.1090776436031,638.0852421373129L722.5117193721235,782.4396017286927L795.6866176519543,685.0523803755641Z" fill="#d47790" stroke="#d47790"></path><path d="M795.6866176519543,685.0523803755641L722.5117193721235,782.4396017286927L857.181011158973,869.3673250358552Z" fill="#db7180" stroke="#db7180"></path><path d="M795.6866176519543,685.0523803755641L857.181011158973,869.3673250358552L919.2508040182292,652.5517472159117Z" fill="#c56b8c" stroke="#c56b8c"></path><path d="M919.2508040182292,652.5517472159117L857.181011158973,869.3673250358552L988.9352758973837,836.0416791960597Z" fill="#bb6580" stroke="#bb6580"></path><path d="M919.2508040182292,652.5517472159117L988.9352758973837,836.0416791960597L1080.5341921839863,656.9989952165633Z" fill="#9c5995" stroke="#9c5995"></path><path d="M1080.5341921839863,656.9989952165633L988.9352758973837,836.0416791960597L1182.5547993276268,843.7678149808198Z" fill="#9a468c" stroke="#9a468c"></path><path d="M1080.5341921839863,656.9989952165633L1182.5547993276268,843.7678149808198L1265.2555604092777,698.6453430633992Z" fill="#9e3391" stroke="#9e3391"></path><path d="M1265.2555604092777,698.6453430633992L1182.5547993276268,843.7678149808198L1267.657205304131,803.4649747610092Z" fill="#b0267e" stroke="#b0267e"></path><path d="M1265.2555604092777,698.6453430633992L1267.657205304131,803.4649747610092L1410.00365302898,854.1845755744725Z" fill="#bc1676" stroke="#bc1676"></path><path d="M1265.2555604092777,698.6453430633992L1410.00365302898,854.1845755744725L1373.3006262034178,627.3466126341373Z" fill="#b80f81" stroke="#b80f81"></path><path d="M1373.3006262034178,627.3466126341373L1410.00365302898,854.1845755744725L1574.8952646553516,829.2525038123131Z" fill="#d3006c" stroke="#d3006c"></path><path d="M1373.3006262034178,627.3466126341373L1574.8952646553516,829.2525038123131L1616.9654528517276,688.6484466399997Z" fill="#ce0073" stroke="#ce0073"></path><path d="M233.25731540098786,876.4796844217926L857.181011158973,869.3673250358552L376.48598643019795,871.2198781874031Z" fill="#ff6654" stroke="#ff6654"></path><path d="M376.48598643019795,871.2198781874031L857.181011158973,869.3673250358552L722.5117193721235,782.4396017286927Z" fill="#f5786a" stroke="#f5786a"></path><path d="M376.48598643019795,871.2198781874031L722.5117193721235,782.4396017286927L550.7461224775761,766.2200899142772Z" fill="#fe716e" stroke="#fe716e"></path><path d="M857.181011158973,869.3673250358552L1410.00365302898,854.1845755744725L1182.5547993276268,843.7678149808198Z" fill="#a23875" stroke="#a23875"></path><path d="M857.181011158973,869.3673250358552L1182.5547993276268,843.7678149808198L988.9352758973837,836.0416791960597Z" fill="#a95674" stroke="#a95674"></path><path d="M1182.5547993276268,843.7678149808198L1410.00365302898,854.1845755744725L1267.657205304131,803.4649747610092Z" fill="#b81c6d" stroke="#b81c6d"></path></g></svg>
